<svg xmlns="http://www.w3.org/2000/svg" xmlns:xlink="http://www.w3.org/1999/xlink" width="150" height="150" viewBox="0 0 150 150"><defs><clipPath id="a"><rect width="150" height="150" rx="75" transform="translate(876 137)" fill="none"/></clipPath></defs><g transform="translate(-876 -137)"><g clip-path="url(#a)"><path d="M77.835.5C34.831.5,0,34.747,0,76.986c0,33.8,22.3,62.462,53.22,72.568,3.892.72,5.319-1.648,5.319-3.678,0-1.816-.065-6.629-.1-13C36.79,137.483,32.224,122.61,32.224,122.61c-3.541-8.828-8.659-11.189-8.659-11.189-7.051-4.741.545-4.644.545-4.644,7.816.532,11.922,7.881,11.922,7.881,6.94,11.695,18.22,8.315,22.669,6.363.7-4.949,2.7-8.315,4.93-10.229C46.344,108.878,28.176,102.3,28.176,73a29.222,29.222,0,0,1,8.01-20.522c-.876-1.933-3.5-9.71.681-20.244,0,0,6.519-2.05,21.4,7.842a74.628,74.628,0,0,1,38.917,0c14.789-9.892,21.307-7.842,21.307-7.842,4.184,10.534,1.557,18.311.778,20.244A29.34,29.34,0,0,1,127.253,73c0,29.383-18.194,35.849-35.512,37.73,2.724,2.3,5.254,6.986,5.254,14.153,0,10.235-.1,18.46-.1,20.944,0,2,1.362,4.4,5.351,3.632,31.14-10.041,53.421-38.723,53.421-72.471C155.67,34.747,120.819.5,77.835.5Z" transform="translate(873 132.5)"/></g></g></svg>