<svg xmlns="http://www.w3.org/2000/svg" width="150" height="150" viewBox="0 0 150 150"><g transform="translate(-486 -254)"><path d="M1498-2173a74.528,74.528,0,0,1-29.193-5.894,75.006,75.006,0,0,1-12.74-6.915,75.547,75.547,0,0,1-11.1-9.158,75.537,75.537,0,0,1-9.158-11.1,74.994,74.994,0,0,1-6.915-12.74A74.533,74.533,0,0,1,1423-2248a74.53,74.53,0,0,1,5.894-29.193,75.007,75.007,0,0,1,6.915-12.74,75.558,75.558,0,0,1,9.158-11.1,75.538,75.538,0,0,1,11.1-9.158,75,75,0,0,1,12.74-6.915A74.528,74.528,0,0,1,1498-2323a74.531,74.531,0,0,1,29.194,5.894,75.011,75.011,0,0,1,12.74,6.915,75.547,75.547,0,0,1,11.1,9.158,75.565,75.565,0,0,1,9.158,11.1,75.017,75.017,0,0,1,6.915,12.74A74.53,74.53,0,0,1,1573-2248a74.533,74.533,0,0,1-5.894,29.194,75,75,0,0,1-6.915,12.74,75.549,75.549,0,0,1-9.158,11.1,75.541,75.541,0,0,1-11.1,9.158,75.01,75.01,0,0,1-12.74,6.915A74.531,74.531,0,0,1,1498-2173Zm14-78.028a9.02,9.02,0,0,1,5.239,1.5,8.421,8.421,0,0,1,3.144,4.218c.642,1.8.967,5.822.967,11.956v18.583a2.518,2.518,0,0,0,2.515,2.515h10.069a2.518,2.518,0,0,0,2.515-2.515v-24.924a47.394,47.394,0,0,0-.833-10.156,16.7,16.7,0,0,0-2.956-6.342,15.384,15.384,0,0,0-6.259-4.594,22.765,22.765,0,0,0-9.135-1.8,22.654,22.654,0,0,0-9.371,1.936,23.884,23.884,0,0,0-7.822,5.808,1.587,1.587,0,0,1-1,.638.492.492,0,0,1-.447-.308,2.064,2.064,0,0,1-.163-.917v-3.353a2.518,2.518,0,0,0-2.515-2.516h-8.995a2.518,2.518,0,0,0-2.516,2.516v44.01a2.518,2.518,0,0,0,2.516,2.515h10.069a2.518,2.518,0,0,0,2.515-2.515v-15.305c0-6.347.389-10.758,1.156-13.111a10.872,10.872,0,0,1,4.271-5.7A12.159,12.159,0,0,1,1512-2251.028Zm-50.487-10.264a2.518,2.518,0,0,0-2.516,2.516v44.01a2.518,2.518,0,0,0,2.516,2.515h10.068a2.518,2.518,0,0,0,2.516-2.515v-44.01a2.518,2.518,0,0,0-2.516-2.516Zm0-21.709a2.518,2.518,0,0,0-2.516,2.515v8.941a2.518,2.518,0,0,0,2.516,2.515h10.068a2.518,2.518,0,0,0,2.516-2.515v-8.941a2.518,2.518,0,0,0-2.516-2.515Z" transform="translate(-937 2577)"/></g></svg>