<svg xmlns="http://www.w3.org/2000/svg" width="150" height="150" viewBox="0 0 150 150"><g transform="translate(-288 -190)"><path d="M1498-2173a74.528,74.528,0,0,1-29.193-5.894,75.006,75.006,0,0,1-12.74-6.915,75.547,75.547,0,0,1-11.1-9.158,75.537,75.537,0,0,1-9.158-11.1,74.994,74.994,0,0,1-6.915-12.74A74.533,74.533,0,0,1,1423-2248a74.53,74.53,0,0,1,5.894-29.193,75.007,75.007,0,0,1,6.915-12.74,75.558,75.558,0,0,1,9.158-11.1,75.538,75.538,0,0,1,11.1-9.158,75,75,0,0,1,12.74-6.915A74.528,74.528,0,0,1,1498-2323a74.531,74.531,0,0,1,29.194,5.894,75.011,75.011,0,0,1,12.74,6.915,75.547,75.547,0,0,1,11.1,9.158,75.565,75.565,0,0,1,9.158,11.1,75.017,75.017,0,0,1,6.915,12.74A74.53,74.53,0,0,1,1573-2248a74.533,74.533,0,0,1-5.894,29.194,75,75,0,0,1-6.915,12.74,75.549,75.549,0,0,1-9.158,11.1,75.541,75.541,0,0,1-11.1,9.158,75.01,75.01,0,0,1-12.74,6.915A74.531,74.531,0,0,1,1498-2173Zm-35.472-95.246a1.406,1.406,0,0,0-.641.154,1.69,1.69,0,0,0-.886,1.512v41.918a6.416,6.416,0,0,0,6.114,6.667h61.141a6.416,6.416,0,0,0,6.114-6.667v-41.918a1.684,1.684,0,0,0-.887-1.512,1.406,1.406,0,0,0-.643-.156,1.446,1.446,0,0,0-.987.4c-11.159,10.317-25.406,23.542-29.9,27.961a6.034,6.034,0,0,1-4.263,1.858,6.045,6.045,0,0,1-4.27-1.861c-5.031-4.943-22.586-21.2-29.9-27.958A1.454,1.454,0,0,0,1462.527-2268.246Zm4.663-9.754a5.885,5.885,0,0,0-4.785,2.569,1.771,1.771,0,0,0,.214,2.3c10.048,9.3,27.677,25.668,32.849,30.761a3.145,3.145,0,0,0,2.215,1.039,3.145,3.145,0,0,0,2.211-1.032c5.21-5.131,22.82-21.479,32.854-30.767a1.771,1.771,0,0,0,.214-2.3,5.885,5.885,0,0,0-4.785-2.569Z" transform="translate(-1135 2513)"/></g></svg>