<svg xmlns="http://www.w3.org/2000/svg" width="244.494" height="361.181" viewBox="0 0 244.494 361.181"><g transform="translate(-651.358 -398.643)"><g transform="translate(651.358 398.643)"><path d="M1410.448,471.753l34.607,8.2,5.156,12.49-1.5,3.545,12.263,3.336-4.748,3.081,11.168,1.021-8.656,9.753,7.335,4.719,5.224,76.082-6.682,15.469s10.166,26.712-15.981,53.274l-3.625,13.218L1456.4,711.39s-27.68,14.879-40.972,4.433-45.865-69.19-40.331-81.806,5.926-80.176,11.276-88.13S1410.448,471.753,1410.448,471.753Z" transform="translate(-1226.805 -456.823)" fill="#29ebfe" fill-rule="evenodd"/><path d="M800.918,400.291l-97.069-1.648,12.854,9.266-9.473.639L654.1,451.862l-2.328,61.48-.417,3.425,13.7-3.425v16.19l-9.127,18.232L668.6,563.268s-19.62,50.051-.98,50.919c0,0-1.007,22.6,4.88,31.675,0,0-5.169,12.714,2.52,21.021,0,0,4.755,16.151,3.815,19.582s3.008,26.224,24.486,25.593l34.3-.813,49.286,48.579,97.907-96.008L787.808,749.23l-43.39-48.077s-48.147,8.936-56.211-8.991L686.7,672.677l-6.319-13.494-.229-6.059s10.971,6.618,16.887-1.581c0,0-7.231,1.378-11.008-4.084l-1.719-5.777-4.658-2.943.356-8.758,1.428-2.169-1.549-16.52S664.3,606.6,668.543,592.987c0,0,2.586,11.36,8.622,4.646,0,0,14.139-41.468,11.062-52.063,0,0-4.974,18.934-11.419,22.21l.553-21.944.137-15.771s-1.214-21.479,2.386-28.741c0,0,100.781-76.853,104.567-79.075s17.544-12.035,17.544-12.035Z" transform="translate(-651.358 -398.643)" fill="#fff" fill-rule="evenodd"/><path d="M733.124,603.719l-1.953,37.545-5.662,7.044,10.634,15.626-.434,10.635,6.511-6.945,5.209-16.277s-4.58,15.441-10,28.6c-4.088,9.932-9.437,19.107-9.115,15.939,0,0-5.821,14.15,7.439,20.435l3.635,1.93.547,16.361s-3.451,7.186.2,11.928c0,0,4.584,2.436,4.083,4.793s-1.359,2.745-3.428,7.952c0,0-1.764,7.286.407,10.178s3.277,12.763,4.083,16.416,1.882,12,3.632,14.372,17.706,15.246,50.422,8.542c0,0,7.7,2.687,9.91,5.2S835.9,840.583,835.9,840.583l13.2,12.081,93.7-86.466-21.06-38.06,4.444-22.208s26.114-29.024,6.435-62.03c0,0-7.5-52.074-25.653-70.837S877.03,539.6,862.634,539.9s-51.385-19.836-70.072-.079S733.124,603.719,733.124,603.719Z" transform="translate(-710.366 -504.076)" fill="#fcb298" fill-rule="evenodd"/><path d="M762.841,1132.171l6.886,1.025,2.317-5.985s.187-4.574-1.669-4.93-6.555-.49-7.413.116a17.951,17.951,0,0,0-2.019,1.83Z" transform="translate(-738.566 -974.268)" fill="#fff" fill-rule="evenodd"/><path d="M990.038,1138.311l6.631-4.031,11.956,3.661s13.71,5.126,14.533,5.442-3.455,3.006-3.455,3.006l-8.556,2.187-17.135-1.707-5.024-5.258Z" transform="translate(-920.041 -984.057)" fill="#fff" fill-rule="evenodd"/><path d="M989.79,1142.737l2.92-2.518,2.479.047,2.054-5.861,5.914,1.154,2.769,6.237,10.053,2.028s3.549-1.787,2.877-2.716-7.529-4.241-8.91-4.386a52.5,52.5,0,0,1-8.946-2.785c-1.333-.715-9.63-2.616-9.63-2.616l-6.546,5.269a23.168,23.168,0,0,0,1,3.5C986.211,1140.771,989.79,1142.737,989.79,1142.737Z" transform="translate(-916.728 -981.702)" fill="#68687c" fill-rule="evenodd"/><path d="M760.464,1134.541l2.509-3.224,1.941.09.565-5.16s-2.449-1.186-3.79-.468-3.45,2.534-3.092,3.747S760.464,1134.541,760.464,1134.541Z" transform="translate(-736.666 -977.108)" fill="#68687c" fill-rule="evenodd"/><path d="M817.782,1585.546s.633-5.767,1.979-5.957a8.8,8.8,0,0,1,4.785-.084c2.718.629,20.427,4.474,20.427,4.474-1.629,3.667-3.621,4.734-5.055,4.942s-4.934,1.131-6.493,1.182S821.477,1591.695,817.782,1585.546Z" transform="translate(-783.797 -1338.125)" fill="#fff" fill-rule="evenodd"/><path d="M813.1,1583.534a3.793,3.793,0,0,1,3.859-2.289s10.886.388,18.5,3.218c0,0,.693,3.733-8.96,4.378,0,0,12.664-.817,14.275-2.818s3.914-3.78,1.876-3.812a95.413,95.413,0,0,1-9.811-.982c-1.829-.355-7.679-2.263-10.323-2.538s-6.027-1.871-7.34-.21S812.447,1581.733,813.1,1583.534Z" transform="translate(-779.942 -1336.956)" fill="#68687c" fill-rule="evenodd"/><path d="M868.758,1061.513l-7.251,35.04,14.723-8.485,11.5,9.224,6.873,2.175L890.6,1093.2l14.742,4.317,11.362-1.174-11.728-3.915-12.667-7.756s-7.2-6.751-5.976-8.081,7.726-3.359,7.726-3.359l11.464,2.8,9.345,3.547,6.047,2.467-.852,3.265,6.559,5.434,11.411-.229-10.014-6.845-39.854-13.51-5.026-9.724-10.95-3.335Z" transform="translate(-818.593 -922.638)" fill="#a55d4e" fill-rule="evenodd"/><path d="M775.393,696.36,771.83,709.4l13.314.575-5.766,6.873,22.222-1.838,22.347-8.613L817,719.584l46.331-15.641,31.4-35.3s-5.667-19.817-11.1-21.658-45.557-4.691-52.616-2.633-40.02,26.175-40.02,26.175Z" transform="translate(-747.229 -593.609)" fill="#a55d4e" fill-rule="evenodd"/><path d="M734.789,1332.613s1.594,10.9,10.993,11.944c0,0,8.105-6.925,17.743-1.889,0,0,6.245.331,6.252-5.746,0,0,4.415,2.73,1.993,8.323,0,0,5.59-8.385-2.294-15.575,0,0,13.983,4.1,10.54,20.31,0,0-2.821,10.329-16.8,10.962,0,0,3.731,3.192,6.384,3.345,0,0-11.614.425-13.176-2.359l.939,6.506-10.49,3.747-.8-16.459-.324-4.152-6.145-1.515S731.146,1344.712,734.789,1332.613Z" transform="translate(-717.027 -1139.547)" fill="#a55d4e" fill-rule="evenodd"/><path d="M789.306,1535.35l4.566,3.263,7.782-3.043s19.853,12.34,25.966,11.956l2.76,2.871s-3.943,14.284-27.9,17.3l-2.892.835s17.1,4.474,20.1,3.948l-15.451,5.844-7.568-.547-5.1-12.283.227-6.665s18.111,6.812,31.165-5.689l-1.452-3.915s-14.417-4.554-18.034-4.591.361-.647-4.2-.014-5.447.441-5.447.441l-3.933,1.323Z" transform="translate(-761.136 -1303.226)" fill="#a55d4e" fill-rule="evenodd"/><path d="M839.949,1761s30.04-.139,44.229-13.382c0,0,51.714,8.746,66.294-7.625,0,0-2.906,23.3-23.355,41.413l14.938,14.756,31.015-12.2-34.444,31.2-44.572-44.764s-27.4,5.653-44.615-.151C845.045,1768.761,842.62,1763.772,839.949,1761Z" transform="translate(-801.437 -1466.077)" fill="#a55d4e" fill-rule="evenodd"/><path d="M1594.39,1199.9l6.739-18.881s4.211-5.726,8.585-4.45,8.664.954,9.2,5.434-.2,36.776-27.119,43.176c0,0,10.09-6.333,13.149-15.005l-6.357-6.684Z" transform="translate(-1399.747 -1017.561)" fill="#a55d4e" fill-rule="evenodd"/><path d="M1509.03,1418.13s10.649,2.557,12.641.349C1521.671,1418.479,1517.376,1432.324,1509.03,1418.13Z" transform="translate(-1333.887 -1209.943)" fill="#a55d4e" fill-rule="evenodd"/><path d="M1516.438,1401.58l-20.923,15.806-10.278,4.64-5.3-5.538-9.722,27.049,13.29-8.4,3.866-6.612s20.059,6.277,27.7-18.46Z" transform="translate(-1303.002 -1196.772)" fill="#a55d4e" fill-rule="evenodd"/><path d="M754.909,1125.689l-3.846,8.323-4.1-.895-7.872,32.774s2.6-2.222,7.25-12.945,6.762-16.538,6.762-16.538l4.822-16.03Z" transform="translate(-721.176 -972.996)" fill="#a55d4e" fill-rule="evenodd"/><path d="M738.665,1089.61l3.073,5.361-6.8-.074-6.54,4.382-5.257-7.3,13.284-3.743Z" transform="translate(-708.482 -947.419)" fill="#a55d4e" fill-rule="evenodd"/><path d="M1534.632,1061.276a31.8,31.8,0,0,0-26.806,21.877l-11.066-4.391s8.981-19.7,12.161-22.792,16.6-9.951,16.6-9.951Z" transform="translate(-1324.122 -913.821)" fill="#a55d4e" fill-rule="evenodd"/><path d="M810.889,481.525,784.61,503.477l-29.882,7.151,21.362-19.547-29.14,20.268-45.787,3.48,14.8-7.5,16.043-14.187-20.34,13.247-35.851,5.9L686.47,498.4l4.01-11.515-14.536,18.505,5.95-47.644,54.472-42.54,12.373-2.176-8.354-4.722,81.534-4.928,32.065,17.628-.525-5.722,27.006,13.188,8.313,11.275-2.81,3.492,7.972,2.316-4.595,2.885,8.618,2.316-4.176,6.377,8.35,7.9,6.463,44.24-1.636,33.556-6.949,13.129s9.014,21.758-10.368,47.36l-5.622,20.995,22.514,42.5-99.559,88.649-48.728-49.892,5.944-1.031,43.9,43.884,91.861-84.074-22.489-38.026,5.021-13.1s-16.251,15.234-23.529,16.535c0,0-10.658,13.227-13.084-12.222,0,0,10.449,18.023,31.6-10.17,0,0,30.8-34.209,14.744-48.593,0,0-18.148-20.766-45.669,11.213l-17.684-4.2s9.739-47.726-18.152-69.384Z" transform="translate(-670.823 -402.415)" fill="#342d3d" fill-rule="evenodd"/><path d="M1561.27,1189.771s19.734-20.323,5.132-32.924c0,0-20.2-12.72-26.753,27.983,0,0-4.135-1.607-6.78-.433,0,0,3.647,4.974,1.789,7.574s-12.653,14.995-1.928,13.939c0,0,4.331-.27,8.8-6.99,0,0,13.815,2.4,16.473-11.039,0,0,1.873-11.064-11.307-12.03l1.035-2.04s8.742,1.213,7.006-8.836C1554.742,1164.974,1570.069,1157.515,1561.27,1189.771Z" transform="translate(-1349.02 -1000.518)" fill="#342d3d" fill-rule="evenodd"/><path d="M907.434,1065.983l2.428.474,1.037-1.724-3.5-1.844-1.307,1.191-1.34,6.537,2.941,3.633,6.784.684,2.54-1.548,2.8-5.26,6.155,2.289-8.2,4.742,19.929-3.445-33.059-12.156,35.473,6.31-10.7-7.088-37.169-13.331,4.12-1.374-7.012-2.1-9.268,1.062-8.558,7.891,10.152.237,7.61,4.58-10.37,20.58,15.7-6.788,8.229,5.814-3.666-8.183,4.084-4.423,6.241,2.52-.772,3-1.595-.41" transform="translate(-826.565 -910.598)" fill="#342d3d" fill-rule="evenodd"/><path d="M724.11,1039.07l-1.549.874L722.05,1044l-1.688-1.658-6.568,1.914-3.168,10.153,17.774-2.64,2.045,2.765-4.337-1.278-4.7,1.75-3.981,4.695,2.509,4.529,2.865,2.255.232-7.4,2.749-.7,1.348.866-.744,1.348.813,5.214,1.371,1.672,2.424-.061,4.872-12.028Zm3.408,21.36h1.58v1.811h-1.58Z" transform="translate(-698.523 -908.29)" fill="#342d3d" fill-rule="evenodd"/><path d="M728.548,1338.46s-4.056,16.821,14.674,20.637c0,0-4.162,3.361-7.542,1.152,0,0,1.931,17.544,2.289,18.82a7.534,7.534,0,0,1,2.3-2.91s-2.043,9.04,3.014,12c0,0,.272-3.619,11.219-.774,0,0,19.778,3.978,22.794,2.814l.294-1.687s3.978.8,4.585,7.151l-3.3-1.17s-8.115-1.15-10.126-1.437c0,0-17.46-5.559-21.418-3.6,0,0-1.245,6.188,2.113,7.782,0,0,19.637,3.421,20.817-4.733l9.193,1.16s-11.063,8.573-28.985,5.622a43.58,43.58,0,0,1-5.318-2.22s-9.593,11.987,10.157,13.911c0,0-9.259,4.948-14.173-2.33,0,0-3.589-7.423,1.869-13.041,0,0-1.138-3.41-.992-4.219l-1.138-.249,1.5,7.309s-.49,11.05,2.079,13.811c0,0,4.378,5.949,4.515,16.186l.3,11.209,7.385,7.07s16.668,7.019,63.69-4.633l26.61-6.68,17.072-20.147-15.359,26.01-41.479,11.052s-32.365,4.517-49.565.329c0,0-10.852-5.556-12.808-13.608,0,0-.3-16.024-1.929-19.044,0,0-5.1-11.029-6.166-14.437a49.68,49.68,0,0,1,.468-10.676s-2.007-8.021-2.608-11.909c0,0-3.872-13.745-2.3-23.745C732.274,1359.238,721.314,1352.908,728.548,1338.46Z" transform="translate(-710.82 -1146.542)" fill="#342d3d" fill-rule="evenodd"/><path d="M817.945,1398.542s8.532-.707,10.616-1.515,6.719,1.474,4.33,5.73c0,0,7.128,4.856,12.975-9.267,0,0,2.605,18.375-15.542,14.1l-3.967-2.3a39.821,39.821,0,0,0,6.738.184s-4.449-.331-5.669-1.5-2.552-.946-4.758-1.374S818.187,1400.819,817.945,1398.542Z" transform="translate(-783.927 -1190.335)" fill="#342d3d" fill-rule="evenodd"/><path d="M1237.842,1418.45s-4.131-.006-3.112,2.163.958,4.009,2.369,3.261,2.616-1.642,2.271-3.265Z" transform="translate(-1115.472 -1210.198)" fill="#342d3d" fill-rule="evenodd"/><path d="M887.539,520.361l-28.719,1.161-27.813,22.221,35.894-8.1Z" transform="translate(-794.322 -495.505)" fill="#4b4555" fill-rule="evenodd"/><path d="M742.082,655.209l-14.745,3.314-9.429,30.955Z" transform="translate(-704.319 -602.816)" fill="#4b4555" fill-rule="evenodd"/><path d="M874.012,615.762l-38.843,10.593-16.055,20.259,37.5-11.422Z" transform="translate(-784.857 -571.425)" fill="#4b4555" fill-rule="evenodd"/><path d="M829.545,734.551l-42.452,14.16-12.435,10.532,41.1-10.164Z" transform="translate(-749.479 -665.956)" fill="#4b4555" fill-rule="evenodd"/><path d="M990.086,695.658l-15.493,10.43L957,728.963l-9.534,8.235L974.125,726Z" transform="translate(-886.998 -635.005)" fill="#4b4555" fill-rule="evenodd"/><path d="M1171.014,695.8l-15.024,21.117,14.972-7.779Z" transform="translate(-1052.94 -635.118)" fill="#4b4555" fill-rule="evenodd"/><path d="M1183.536,714.557l-10.178,15.786-18.828,16.321,27.282-16.9Z" transform="translate(-1051.778 -650.045)" fill="#4b4555" fill-rule="evenodd"/></g><rect width="9.598" height="1.225" transform="translate(710.67 644.429) rotate(7)" fill="#342d3d"/><path d="M0,0H3.267V10.009l2.771,4.783L0,14.295Z" transform="translate(679.923 648.777)" fill="#342d3d"/></g></svg>