<svg xmlns="http://www.w3.org/2000/svg" width="542.492" height="801.402" viewBox="0 0 542.492 801.402">
  <g id="Layer_1" data-name="Layer 1" transform="translate(-651.358 -398.643)">
    <g id="Group_23" data-name="Group 23" transform="translate(651.358 398.643)">
      <path id="Path_86" data-name="Path 86" d="M1454.3,471.753l76.787,18.184,11.441,27.713-3.321,7.865,27.209,7.4-10.535,6.836,24.78,2.266-19.207,21.641,16.275,10.472,11.59,168.813-14.825,34.323s22.555,59.27-35.46,118.205L1530.99,924.8l25.27,78.668s-61.418,33.013-90.911,9.837-101.767-153.52-89.488-181.513,13.149-177.9,25.021-195.545S1454.3,471.753,1454.3,471.753Z" transform="translate(-1046.826 -438.627)" fill="#29ebfe" fill-rule="evenodd"/>
      <path id="Path_87" data-name="Path 87" d="M983.207,402.3l-215.379-3.657,28.521,20.56-21.019,1.418L657.447,516.727,652.283,653.14l-.925,7.6,30.4-7.6v35.922l-20.251,40.453,28.1,34.4S646.074,874.975,687.433,876.9c0,0-2.235,50.136,10.828,70.281,0,0-11.469,28.21,5.59,46.642,0,0,10.55,35.836,8.465,43.448s6.674,58.188,54.331,56.787l76.115-1.8L952.12,1200.045l217.24-213.026L954.118,1176.538l-96.275-106.674s-106.829,19.828-124.723-19.95l-3.348-43.235L715.75,976.737l-.508-13.444s24.343,14.685,37.47-3.507c0,0-16.045,3.058-24.425-9.062l-3.813-12.818-10.335-6.529.79-19.434,3.168-4.812-3.438-36.656s-34.577-10.412-25.168-40.616c0,0,5.737,25.206,19.131,10.308,0,0,31.371-92.012,24.545-115.519,0,0-11.038,42.012-25.338,49.279l1.227-48.69.3-34.993s-2.695-47.659,5.294-63.771c0,0,223.615-170.524,232.016-175.454s38.926-26.7,38.926-26.7Z" transform="translate(-651.358 -398.643)" fill="#fff" fill-rule="evenodd"/>
      <path id="Path_88" data-name="Path 88" d="M742.406,692.193,738.072,775.5,725.508,791.13,749.1,825.8l-.963,23.6,14.446-15.41,11.557-36.117s-10.162,34.261-22.18,63.46c-9.071,22.037-20.94,42.4-20.226,35.367,0,0-12.916,31.4,16.507,45.342l8.065,4.282,1.214,36.3s-7.657,15.945.441,26.466c0,0,10.172,5.406,9.059,10.634s-3.016,6.09-7.607,17.644c0,0-3.913,16.167.9,22.583s7.271,28.319,9.06,36.425,4.176,26.624,8.058,31.889,39.287,33.829,111.879,18.953c0,0,17.077,5.963,21.989,11.531s59.139,59,59.139,59l29.293,26.806,207.915-191.853-46.728-84.449,9.859-49.275s57.943-64.4,14.277-137.635c0,0-16.647-115.544-56.919-157.175s-66.434-74.256-98.378-73.578-114.014-44.013-155.478-.175S742.406,692.193,742.406,692.193Z" transform="translate(-691.91 -471.1)" fill="#fcb298" fill-rule="evenodd"/>
      <path id="Path_89" data-name="Path 89" d="M765.154,1144.594l15.279,2.275,5.141-13.28s.414-10.15-3.7-10.938-14.544-1.087-16.448.258a39.815,39.815,0,0,0-4.48,4.06Z" transform="translate(-711.29 -794.233)" fill="#fff" fill-rule="evenodd"/>
      <path id="Path_90" data-name="Path 90" d="M991.318,1143.224l14.712-8.944,26.529,8.124s30.421,11.373,32.247,12.075-7.667,6.67-7.667,6.67L1038.155,1166l-38.02-3.788-11.147-11.667Z" transform="translate(-836.007 -800.961)" fill="#fff" fill-rule="evenodd"/>
      <path id="Path_91" data-name="Path 91" d="M995.842,1156.653l6.479-5.587,5.5.1,4.558-13,13.122,2.56,6.144,13.838,22.306,4.5s7.875-3.965,6.384-6.026-16.706-9.411-19.769-9.733-16.9-4.594-19.85-6.18-21.368-5.8-21.368-5.8l-14.524,11.69s1.352,6.244,2.213,7.762S995.842,1156.653,995.842,1156.653Z" transform="translate(-833.73 -799.342)" fill="#68687c" fill-rule="evenodd"/>
      <path id="Path_92" data-name="Path 92" d="M762.79,1145.5l5.567-7.155,4.307.2,1.254-11.45s-5.433-2.632-8.41-1.037-7.654,5.623-6.862,8.314S762.79,1145.5,762.79,1145.5Z" transform="translate(-709.985 -796.185)" fill="#68687c" fill-rule="evenodd"/>
      <path id="Path_93" data-name="Path 93" d="M817.782,1593.276s1.406-12.8,4.39-13.217,4.585-1.581,10.616-.186,45.325,9.927,45.325,9.927c-3.615,8.138-8.035,10.5-11.216,10.965s-10.947,2.51-14.407,2.623S825.98,1606.919,817.782,1593.276Z" transform="translate(-742.375 -1044.289)" fill="#fff" fill-rule="evenodd"/>
      <path id="Path_94" data-name="Path 94" d="M813.3,1590.6a8.416,8.416,0,0,1,8.562-5.079s24.155.861,41.049,7.141c0,0,1.538,8.283-19.88,9.714,0,0,28.1-1.812,31.674-6.253s8.686-8.387,4.162-8.459a211.659,211.659,0,0,1-21.769-2.179c-4.058-.788-17.039-5.02-22.905-5.632s-13.373-4.15-16.286-.467S811.849,1586.6,813.3,1590.6Z" transform="translate(-739.725 -1043.486)" fill="#68687c" fill-rule="evenodd"/>
      <path id="Path_96" data-name="Path 96" d="M877.6,1066.891l-16.088,77.748,32.667-18.826L919.7,1146.28l15.249,4.826-8.89-13.91,32.71,9.579,25.211-2.605-26.022-8.686-28.106-17.209s-15.978-14.98-13.26-17.929,17.144-7.453,17.144-7.453l25.437,6.212,20.734,7.87,13.416,5.474-1.89,7.245,14.554,12.057,25.319-.507-22.22-15.188-88.429-29.977L909.5,1064.5l-24.3-7.4Z" transform="translate(-766.288 -758.751)" fill="#a55d4e" fill-rule="evenodd"/>
      <path id="Path_97" data-name="Path 97" d="M779.735,760.619,771.83,789.56l29.541,1.276-12.795,15.25,49.306-4.078,49.583-19.11-15.416,29.25,102.8-34.706,69.665-78.319s-12.574-43.97-24.631-48.055S918.8,640.661,903.139,645.227s-88.8,58.077-88.8,58.077Z" transform="translate(-717.244 -532.631)" fill="#a55d4e" fill-rule="evenodd"/>
      <path id="Path_98" data-name="Path 98" d="M735.9,1336.2s3.536,24.182,24.391,26.5c0,0,17.985-15.365,39.37-4.191,0,0,13.858.734,13.873-12.75,0,0,9.8,6.058,4.423,18.468,0,0,12.4-18.6-5.091-34.558,0,0,31.027,9.089,23.387,45.066,0,0-6.259,22.918-37.267,24.323,0,0,8.278,7.082,14.165,7.422,0,0-25.769.943-29.234-5.233L786,1415.683,762.724,1424l-1.781-36.52-.718-9.211L746.59,1374.9S727.815,1363.046,735.9,1336.2Z" transform="translate(-696.488 -907.819)" fill="#a55d4e" fill-rule="evenodd"/>
      <path id="Path_99" data-name="Path 99" d="M789.306,1535.35l10.131,7.241,17.266-6.751s44.051,27.381,57.615,26.529l6.123,6.371s-8.749,31.694-61.911,38.378l-6.416,1.853s37.934,9.927,44.6,8.758L822.431,1630.7l-16.792-1.214-11.309-27.254.5-14.789s40.185,15.115,69.149-12.624l-3.222-8.686s-31.99-10.1-40.013-10.186.8-1.436-9.327-.032-12.086.979-12.086.979l-8.727,2.936Z" transform="translate(-726.801 -1020.305)" fill="#a55d4e" fill-rule="evenodd"/>
      <path id="Path_100" data-name="Path 100" d="M839.949,1786.6s66.654-.308,98.138-29.692c0,0,114.744,19.406,147.1-16.919,0,0-6.448,51.7-51.821,91.889l33.144,32.741,68.817-27.078-76.425,69.23L960,1807.448s-60.8,12.542-98.993-.335C851.256,1803.828,845.875,1792.758,839.949,1786.6Z" transform="translate(-754.498 -1132.222)" fill="#a55d4e" fill-rule="evenodd"/>
      <path id="Path_101" data-name="Path 101" d="M1597.558,1228.56l14.952-41.894s9.343-12.705,19.048-9.873,19.225,2.116,20.4,12.057-.449,81.6-60.172,95.8c0,0,22.388-14.051,29.175-33.294l-14.105-14.83Z" transform="translate(-1165.678 -823.986)" fill="#a55d4e" fill-rule="evenodd"/>
      <path id="Path_102" data-name="Path 102" d="M1509.03,1418.13s23.629,5.673,28.047.775C1537.077,1418.9,1527.548,1449.625,1509.03,1418.13Z" transform="translate(-1120.416 -956.198)" fill="#a55d4e" fill-rule="evenodd"/>
      <path id="Path_103" data-name="Path 103" d="M1572.771,1401.58l-46.425,35.07-22.8,10.294-11.749-12.288-21.572,60.018,29.488-18.636,8.577-14.671s44.508,13.928,61.454-40.96Z" transform="translate(-1099.191 -947.146)" fill="#a55d4e" fill-rule="evenodd"/>
      <path id="Path_104" data-name="Path 104" d="M774.188,1132.161l-8.535,18.469-9.1-1.985-17.466,72.72s5.776-4.929,16.087-28.722,15-36.694,15-36.694l10.7-35.568Z" transform="translate(-699.339 -793.359)" fill="#a55d4e" fill-rule="evenodd"/>
      <path id="Path_105" data-name="Path 105" d="M757.588,1091.28l6.819,11.894-15.091-.163-14.512,9.724-11.664-16.189,29.475-8.305Z" transform="translate(-690.615 -775.782)" fill="#a55d4e" fill-rule="evenodd"/>
      <path id="Path_106" data-name="Path 106" d="M1580.792,1079.871s-44.037,2.678-59.479,48.541l-24.554-9.742s19.927-43.715,26.982-50.571,36.837-22.08,36.837-22.08Z" transform="translate(-1113.706 -752.692)" fill="#a55d4e" fill-rule="evenodd"/>
      <path id="Path_107" data-name="Path 107" d="M975.519,576.767l-58.31,48.708-66.3,15.866,47.4-43.37-64.658,44.97-101.593,7.722,32.844-16.63,35.6-31.479-45.131,29.392-79.548,13.09,23.635-30.818,8.9-25.55L676.1,629.726l13.2-105.713,120.864-94.389,27.454-4.829-18.536-10.478,180.909-10.934,71.146,39.113-1.165-12.7,59.923,29.261,18.446,25.017-6.235,7.748,17.689,5.14-10.195,6.4,19.121,5.139-9.266,14.149,18.527,17.521,14.341,98.16-3.629,74.456-15.419,29.13s20,48.278-23,105.084L1137.8,893.589l49.955,94.309-220.906,196.7-108.119-110.7,13.19-2.288,97.417,97.372,203.824-186.547-49.9-84.372L1134.4,869s-36.058,33.8-52.207,36.688c0,0-23.647,29.347-29.03-27.118,0,0,23.185,39.991,70.109-22.565,0,0,68.342-75.9,32.714-107.82,0,0-40.267-46.076-101.332,24.88l-39.239-9.32s21.608-105.9-40.276-153.951Z" transform="translate(-664.735 -401.235)" fill="#342d3d" fill-rule="evenodd"/>
      <path id="Path_108" data-name="Path 108" d="M1601.764,1232.194s43.788-45.093,11.386-73.054c0,0-44.816-28.224-59.361,62.089,0,0-9.175-3.566-15.043-.96,0,0,8.093,11.037,3.969,16.806s-28.074,33.271-4.277,30.929c0,0,9.61-.6,19.533-15.51,0,0,30.652,5.328,36.552-24.495,0,0,4.155-24.549-25.088-26.692l2.3-4.526s19.4,2.691,15.546-19.606C1587.278,1177.174,1621.288,1160.622,1601.764,1232.194Z" transform="translate(-1130.817 -812.273)" fill="#342d3d" fill-rule="evenodd"/>
      <path id="Path_109" data-name="Path 109" d="M951.2,1095.25l5.387,1.051,2.3-3.824-7.762-4.091-2.9,2.641-2.972,14.5,6.525,8.061,15.052,1.518,5.637-3.435L978.682,1100l13.657,5.079L974.146,1115.6l44.218-7.644-73.353-26.973,78.708,14-23.752-15.727L917.5,1049.682l9.141-3.049-15.559-4.662-20.565,2.356-18.988,17.508,22.526.526,16.886,10.163-23.009,45.664,34.827-15.061,18.26,12.9-8.133-18.156,9.062-9.814,13.847,5.591-1.713,6.647-3.539-.911" transform="translate(-771.767 -750.477)" fill="#342d3d" fill-rule="evenodd"/>
      <path id="Path_110" data-name="Path 110" d="M740.544,1039.07l-3.437,1.939-1.135,8.99-3.746-3.679-14.573,4.246-7.029,22.528,39.439-5.859,4.536,6.135-9.623-2.836-10.431,3.883-8.833,10.417,5.568,10.05,6.358,5,.516-16.411,6.1-1.545,2.99,1.921-1.65,2.99,1.8,11.568,3.042,3.711,5.379-.136L766.63,1075.3Zm7.561,47.395h3.506v4.019h-3.506Z" transform="translate(-683.771 -748.891)" fill="#342d3d" fill-rule="evenodd"/>
      <path id="Path_111" data-name="Path 111" d="M731.558,1338.46s-9,37.322,32.558,45.791c0,0-9.236,7.458-16.734,2.556,0,0,4.285,38.926,5.079,41.758,0,0,2.154-4.758,5.1-6.457,0,0-4.534,20.059,6.688,26.633,0,0,.6-8.029,24.892-1.717,0,0,43.884,8.826,50.576,6.244l.652-3.743s8.826,1.772,10.173,15.868l-7.333-2.6s-18.006-2.551-22.468-3.19c0,0-38.74-12.333-47.523-7.979,0,0-2.761,13.729,4.689,17.268,0,0,43.571,7.589,46.19-10.5l20.4,2.573s-24.546,19.021-64.312,12.474c0,0-9.729-3.462-11.8-4.925,0,0-21.285,26.6,22.537,30.865,0,0-20.545,10.979-31.448-5.17,0,0-7.962-16.47,4.147-28.935,0,0-2.525-7.567-2.2-9.361l-2.526-.553,3.337,16.217s-1.088,24.517,4.613,30.643c0,0,9.714,13.2,10.017,35.913l.666,24.871,16.386,15.687s36.983,15.573,141.317-10.281l59.044-14.821,37.879-44.7L998.072,1566.6l-92.034,24.522s-71.812,10.023-109.977.729c0,0-24.079-12.329-28.42-30.195,0,0-.674-35.555-4.279-42.256,0,0-11.312-24.472-13.681-32.034,0,0-.928-14.209,1.039-23.688,0,0-4.453-17.8-5.787-26.425,0,0-8.592-30.5-5.108-52.687C739.825,1384.563,715.507,1370.517,731.558,1338.46Z" transform="translate(-692.222 -912.626)" fill="#342d3d" fill-rule="evenodd"/>
      <path id="Path_112" data-name="Path 112" d="M817.945,1404.7s18.932-1.568,23.554-3.362,14.907,3.271,9.608,12.714c0,0,15.816,10.775,28.789-20.562,0,0,5.78,40.77-34.485,31.282l-8.8-5.1s9.772,1.056,14.95.408c0,0-9.871-.734-12.578-3.321s-5.662-2.1-10.558-3.049S818.481,1409.752,817.945,1404.7Z" transform="translate(-742.464 -942.722)" fill="#342d3d" fill-rule="evenodd"/>
      <path id="Path_113" data-name="Path 113" d="M1241.832,1418.45s-9.166-.014-6.905,4.8,2.125,8.895,5.256,7.236,5.8-3.643,5.039-7.245Z" transform="translate(-970.314 -956.372)" fill="#342d3d" fill-rule="evenodd"/>
      <path id="Path_114" data-name="Path 114" d="M956.441,520.361l-63.722,2.576-61.712,49.3,79.643-17.976Z" transform="translate(-749.608 -465.21)" fill="#4b4555" fill-rule="evenodd"/>
      <path id="Path_115" data-name="Path 115" d="M771.545,655.209l-32.716,7.353-20.92,68.685Z" transform="translate(-687.755 -538.958)" fill="#4b4555" fill-rule="evenodd"/>
      <path id="Path_116" data-name="Path 116" d="M940.924,615.762l-86.186,23.5-35.624,44.951,83.2-25.344Z" transform="translate(-743.103 -517.385)" fill="#4b4555" fill-rule="evenodd"/>
      <path id="Path_117" data-name="Path 117" d="M896.444,734.551,802.25,765.97l-27.592,23.368,91.2-22.552Z" transform="translate(-718.79 -582.35)" fill="#4b4555" fill-rule="evenodd"/>
      <path id="Path_118" data-name="Path 118" d="M1042.034,695.658,1007.657,718.8l-39.038,50.756-21.154,18.272,59.155-24.84Z" transform="translate(-813.298 -561.08)" fill="#4b4555" fill-rule="evenodd"/>
      <path id="Path_119" data-name="Path 119" d="M1189.325,695.8l-33.335,46.855,33.222-17.26Z" transform="translate(-927.34 -561.157)" fill="#4b4555" fill-rule="evenodd"/>
      <path id="Path_120" data-name="Path 120" d="M1218.889,714.557l-22.583,35.026L1154.53,785.8l60.535-37.5Z" transform="translate(-926.541 -571.415)" fill="#4b4555" fill-rule="evenodd"/>
    </g>
    <rect id="Rectangle_18" data-name="Rectangle 18" width="21.296" height="2.719" transform="translate(782.962 944.002) rotate(7)" fill="#342d3d"/>
    <path id="Path_121" data-name="Path 121" d="M0,0H7.25V22.209L13.4,32.823,0,31.717Z" transform="translate(714.739 953.648)" fill="#342d3d"/>
  </g>
</svg>
