<svg xmlns="http://www.w3.org/2000/svg" width="77" height="76.999" viewBox="0 0 77 76.999">
  <g id="Youtube" transform="translate(0.066 -0.001)">
    <path id="Subtraction_4" data-name="Subtraction 4" d="M-7729.567-4623a38.267,38.267,0,0,1-14.985-3.025,38.372,38.372,0,0,1-12.237-8.25,38.374,38.374,0,0,1-8.251-12.237,38.27,38.27,0,0,1-3.025-14.986,38.27,38.27,0,0,1,3.025-14.986,38.38,38.38,0,0,1,8.251-12.237,38.366,38.366,0,0,1,12.237-8.25,38.264,38.264,0,0,1,14.985-3.025,38.267,38.267,0,0,1,14.986,3.025,38.367,38.367,0,0,1,12.238,8.25,38.38,38.38,0,0,1,8.251,12.237,38.27,38.27,0,0,1,3.025,14.986,38.27,38.27,0,0,1-3.025,14.986,38.374,38.374,0,0,1-8.251,12.237,38.373,38.373,0,0,1-12.238,8.25A38.267,38.267,0,0,1-7729.567-4623Zm-21.514-27.033a5.678,5.678,0,0,0,3.871,3.945l.041.01c3.463.942,17.482.953,17.624.953s14.121-.011,17.626-.953a5.678,5.678,0,0,0,3.907-3.93l.01-.039a58.536,58.536,0,0,0,.938-10.59c0-.139,0-.277,0-.416s0-.281,0-.431a60.586,60.586,0,0,0-1-10.962l.057.369a5.677,5.677,0,0,0-3.877-3.959l-.039-.01c-3.469-.942-17.485-.953-17.626-.953h-.051c-.576,0-14.134.011-17.573.953a5.682,5.682,0,0,0-3.907,3.93l-.008.039a62.459,62.459,0,0,0,.057,22.4l-.054-.355Zm17.03-4.183v-13.674l11.75,6.847-11.749,6.827Z" transform="translate(7768 4700)" fill="#342d3d"/>
  </g>
</svg>
